<svg preserveAspectRatio="xMidYMid meet" data-bbox="0 0 180 97" xmlns="http://www.w3.org/2000/svg" viewBox="0 0 180 97" height="97" width="180" data-type="color" role="presentation" aria-hidden="true" aria-label="">
    <g>
        <path fill="#000000" d="M92 75c0-12.15 9.85-22 22-22h22v22c0 12.15-9.85 22-22 22H92V75Z"></path>
        <path fill="#000000" d="M136 31c0-12.15 9.85-22 22-22h22v22c0 12.15-9.85 22-22 22h-22V31Z"></path>
        <path fill="#000000" d="M88 75c0-12.15-9.85-22-22-22H44v22c0 12.15 9.85 22 22 22h22V75Z"></path>
        <path fill="#000000" d="M44 31c0-12.15-9.85-22-22-22H0v22c0 12.15 9.85 22 22 22h22V31Z"></path>
        <path fill="#000000" d="M74.556 46.67c-8.591-8.592-8.591-22.522 0-31.113L90.113 0l15.556 15.556c8.592 8.591 8.592 22.521 0 31.113L90.113 62.226 74.556 46.67Z"></path>
    </g>
</svg>